<svg xmlns="http://www.w3.org/2000/svg" xmlns:xlink="http://www.w3.org/1999/xlink" width="196" height="196" shape-rendering="crispEdges">
  <rect width="196" height="196" fill="white"/>

  <path d="m0,0 h20 v20 h-20 M1,1 v18 h18 v-18"/>
  <g id="face">
    <path d="M7,6 h2 v2 h-2"/>
    <path d="M11,6 h2 v2 h-2"/>
    <path d="M5,11 h1 v1 h1 v1 h6 v-1 h1 v-1 h1 v1 h-1 v1 h-1 v1 h-6 v-1 h-1 v-1 h-1"/>
    <path id="circle-quarter" d="M7,2 h6 v1 h-6 v1 h-2 v1 h-1 v2 h-1 v6 h-1 v-6 h1 v-2 h1 v-1 h1 v-1 h2"/>
    <use xlink:href="#circle-quarter" transform="translate(20) rotate(90)"/>
    <use xlink:href="#circle-quarter" transform="translate(20,20) rotate(180)"/>
    <use xlink:href="#circle-quarter" transform="translate(0,20) rotate(270)"/>
  </g>

  <path d="M20,20 h1 v1 h1 v1 h1 v1 h1 v1 h1 v1 h1 v1 h1 v1 h1 v1 h1 v1 h1 v1 h1 v1 h1 v1 h1 v-1 h1 v-2 h1 v6 h-6 v-1 h2 v-1 h1 v-1 h-1 v-1 h-1 v-1 h-1 v-1 h-1 v-1 h-1 v-1 h-1 v-1 h-1 v-1 h-1 v-1 h-1 v-1 h-1 v-1 h-1 v-1 h-1"/>

  <use xlink:href="#face" transform="translate(36,36) scale(8,8)"/>

  <pattern id="grid" width="2" height="2" patternUnits="userSpaceOnUse">
    <path d="M0,0 h2 v2 h-2" fill="rgb(192,192,192)"/>
    <path d="M0,0 h1 v1 h1 v1h-1 v-1 h-1 v-1" fill="rgb(128,128,128)"/>
  </pattern>

  <clipPath id="grid-mask">
    <path d="M35,35 h161 v161 h-161 M36,36 v159 h159 v-159"/>
    <path d="M43,35 v161 h1 v-161 m7,0 v161 h1 v-161 m7,0 v161 h1 v-161 m7,0 v161 h1 v-161 m7,0 v161 h1 v-161 m7,0 v161 h1 v-161 m7,0 v161 h1 v-161 m7,0 v161 h1 v-161 m7,0 v161 h1 v-161 m7,0 v161 h1 v-161 m7,0 v161 h1 v-161 m7,0 v161 h1 v-161 m7,0 v161 h1 v-161 m7,0 v161 h1 v-161 m7,0 v161 h1 v-161 m7,0 v161 h1 v-161 m7,0 v161 h1 v-161 m7,0 v161 h1 v-161 m7,0 v161 h1 v-161"/>
    <path d="M35,43 h161 v1 h-161 m0,7 h161 v1 h-161 m0,7 h161 v1 h-161 m0,7 h161 v1 h-161 m0,7 h161 v1 h-161 m0,7 h161 v1 h-161 m0,7 h161 v1 h-161 m0,7 h161 v1 h-161 m0,7 h161 v1 h-161 m0,7 h161 v1 h-161 m0,7 h161 v1 h-161 m0,7 h161 v1 h-161 m0,7 h161 v1 h-161 m0,7 h161 v1 h-161 m0,7 h161 v1 h-161 m0,7 h161 v1 h-161 m0,7 h161 v1 h-161 m0,7 h161 v1 h-161 m0,7 h161 v1 h-161"/>
  </clipPath>
  
  <rect x="35" y="35" width="161" height="161" fill="url(#grid)" clip-path="url(#grid-mask)"/>
</svg>